[h264 @ 0x557cbf329440] Reinit context to 640x368, pix_fmt: yuv420p
Input #0, mov,mp4,m4a,3gp,3g2,mj2, from '/var/www/html/project/media/video/original/VID_20240815_111423_430.mp4':
  Metadata:
    major_brand     : isom
    minor_version   : 512
    compatible_brands: isomiso2avc1mp41
    creation_time   : 2024-08-15T08:43:51.000000Z
  Duration: 00:01:15.67, start: 0.000000, bitrate: 1031 kb/s
    Stream #0:0(eng): Audio: aac (LC) (mp4a / 0x6134706D), 44100 Hz, stereo, fltp, 125 kb/s (default)
    Metadata:
      creation_time   : 2024-08-15T08:42:35.000000Z
      handler_name    : SoundHandle
    Stream #0:1(eng): Video: h264 (High), 1 reference frame (avc1 / 0x31637661), yuv420p(tv, smpte170m/bt470bg/smpte170m, left), 640x360 (640x368), 899 kb/s, 30 fps, 30 tbr, 90k tbn, 180k tbc (default)
    Metadata:
      creation_time   : 2024-08-15T08:42:35.000000Z
      handler_name    : VideoHandle
Input #1, png_pipe, from '/var/www/html/project/static/images/templates/logo.png':
  Duration: N/A, bitrate: N/A
    Stream #1:0: Video: png, 1 reference frame, rgba(pc), 1920x1080 [SAR 2835:2835 DAR 16:9], 25 tbr, 25 tbn, 25 tbc
[h264 @ 0x557cbf338940] Reinit context to 1280x720, pix_fmt: yuv420p
Input #2, mov,mp4,m4a,3gp,3g2,mj2, from '/var/www/html/project/static/images/templates/Codino.mp4':
  Metadata:
    major_brand     : mp42
    minor_version   : 1
    compatible_brands: isommp41mp42
    creation_time   : 2021-07-11T07:02:58.000000Z
  Duration: 00:00:02.00, start: 0.000000, bitrate: 1007 kb/s
    Stream #2:0(ita): Audio: aac (LC) (mp4a / 0x6134706D), 44100 Hz, stereo, fltp, 102 kb/s (default)
    Metadata:
      creation_time   : 2021-07-11T07:02:58.000000Z
      handler_name    : Core Media Audio
    Stream #2:1(und): Video: h264 (High), 1 reference frame (avc1 / 0x31637661), yuv420p(tv, bt709, progressive, left), 1280x720 [SAR 1:1 DAR 16:9], 813 kb/s, 25 fps, 25 tbr, 25k tbn, 50k tbc (default)
    Metadata:
      creation_time   : 2021-07-11T07:02:58.000000Z
      handler_name    : Core Media Video
[Parsed_scale_0 @ 0x557cbf406040] w:1280 h:720 flags:'bilinear' interl:0
[Parsed_scale_2 @ 0x557cbf3f9e40] w:1280 h:720 flags:'bilinear' interl:0
[Parsed_scale_4 @ 0x557cbf3f9700] w:1280 h:720 flags:'bilinear' interl:0
Stream mapping:
  Stream #0:0 (aac) -> concat:in0:a0
  Stream #0:1 (h264) -> scale
  Stream #1:0 (png) -> scale
  Stream #2:0 (aac) -> concat:in1:a0
  Stream #2:1 (h264) -> scale
  concat:out:v0 -> Stream #0:0 (libx264)
  concat:out:a0 -> Stream #0:1 (aac)
Press [q] to stop, [?] for help
[h264 @ 0x557cbf3d4700] Reinit context to 640x368, pix_fmt: yuv420p
[h264 @ 0x557cbf7d8500] Reinit context to 1280x720, pix_fmt: yuv420p
[Parsed_scale_0 @ 0x557cc0226880] w:1280 h:720 flags:'bilinear' interl:0
[Parsed_scale_2 @ 0x557cc022b480] w:1280 h:720 flags:'bilinear' interl:0
[Parsed_scale_4 @ 0x557cc02300c0] w:1280 h:720 flags:'bilinear' interl:0
[graph 0 input from stream 0:1 @ 0x557cc0234800] w:640 h:360 pixfmt:yuv420p tb:1/90000 fr:30/1 sar:0/1 sws_param:flags=2
[graph 0 input from stream 1:0 @ 0x557cc0235880] w:1920 h:1080 pixfmt:rgba tb:1/25 fr:25/1 sar:2835/2835 sws_param:flags=2
[graph 0 input from stream 2:1 @ 0x557cc0236900] w:1280 h:720 pixfmt:yuv420p tb:1/25000 fr:25/1 sar:1/1 sws_param:flags=2
[graph_0_in_0_0 @ 0x557cc02378c0] tb:1/44100 samplefmt:fltp samplerate:44100 chlayout:0x3
[graph_0_in_2_0 @ 0x557cc0238a00] tb:1/44100 samplefmt:fltp samplerate:44100 chlayout:0x3
[Parsed_scale_0 @ 0x557cc0226880] w:640 h:360 fmt:yuv420p sar:0/1 -> w:1280 h:720 fmt:yuv420p sar:0/1 flags:0x2
[Parsed_setsar_1 @ 0x557cbf3d0f80] w:1280 h:720 sar:0/1 dar:16/9 -> sar:1/1 dar:16/9
[Parsed_scale_2 @ 0x557cc022b480] w:1920 h:1080 fmt:rgba sar:2835/2835 -> w:1280 h:720 fmt:yuva420p sar:1/1 flags:0x2
[Parsed_setsar_3 @ 0x557cc022f4c0] w:1280 h:720 sar:1/1 dar:16/9 -> sar:1/1 dar:16/9
[Parsed_overlay_6 @ 0x557cc0231740] main w:1280 h:720 fmt:yuv420p overlay w:1280 h:720 fmt:yuva420p
[Parsed_overlay_6 @ 0x557cc0231740] [framesync @ 0x557cc0231868] Selected 1/90000 time base
[Parsed_overlay_6 @ 0x557cc0231740] [framesync @ 0x557cc0231868] Sync level 2
[Parsed_scale_4 @ 0x557cc02300c0] w:1280 h:720 fmt:yuv420p sar:1/1 -> w:1280 h:720 fmt:yuv420p sar:1/1 flags:0x2
[Parsed_setsar_5 @ 0x557cc0230b80] w:1280 h:720 sar:1/1 dar:16/9 -> sar:1/1 dar:16/9
[libx264 @ 0x557cbf3fb480] using SAR=1/1
[libx264 @ 0x557cbf3fb480] using cpu capabilities: MMX2 SSE2Fast SSSE3 SSE4.2 AVX FMA3 BMI2 AVX2
[libx264 @ 0x557cbf3fb480] profile High, level 3.1
[libx264 @ 0x557cbf3fb480] 264 - core 155 r2917 0a84d98 - H.264/MPEG-4 AVC codec - Copyleft 2003-2018 - http://www.videolan.org/x264.html - options: cabac=1 ref=1 deblock=1:0:0 analyse=0x3:0x113 me=hex subme=2 psy=1 psy_rd=1.00:0.00 mixed_ref=0 me_range=16 chroma_me=1 trellis=0 8x8dct=1 cqm=0 deadzone=21,11 fast_pskip=1 chroma_qp_offset=0 threads=22 lookahead_threads=5 sliced_threads=0 nr=0 decimate=1 interlaced=0 bluray_compat=0 constrained_intra=0 bframes=3 b_pyramid=2 b_adapt=1 b_bias=0 direct=1 weightb=1 open_gop=0 weightp=1 keyint=250 keyint_min=25 scenecut=40 intra_refresh=0 rc_lookahead=10 rc=crf mbtree=1 crf=18.0 qcomp=0.60 qpmin=0 qpmax=69 qpstep=4 ip_ratio=1.40 aq=1:1.00
Output #0, mp4, to '/var/www/html/project/media/video/watermarks/VID_20240815_111423_430.mp4':
  Metadata:
    major_brand     : isom
    minor_version   : 512
    compatible_brands: isomiso2avc1mp41
    encoder         : Lavf58.29.100
    Stream #0:0: Video: h264 (libx264), 1 reference frame (avc1 / 0x31637661), yuv420p(progressive), 1280x720 [SAR 1:1 DAR 16:9], q=-1--1, 30 fps, 15360 tbn, 30 tbc (default)
    Metadata:
      encoder         : Lavc58.54.100 libx264
    Side data:
      cpb: bitrate max/min/avg: 0/0/0 buffer size: 0 vbv_delay: -1
    Stream #0:1: Audio: aac (LC) (mp4a / 0x6134706D), 44100 Hz, stereo, fltp, delay 1024, 128 kb/s (default)
    Metadata:
      encoder         : Lavc58.54.100 aac
[Parsed_concat_7 @ 0x557cc0232880] EOF on in0:a0, 1 streams left in segment.
[Parsed_overlay_6 @ 0x557cc0231740] [framesync @ 0x557cc0231868] Sync level 0
[Parsed_concat_7 @ 0x557cc0232880] EOF on in0:v0, 0 streams left in segment.
[Parsed_concat_7 @ 0x557cc0232880] Segment finished at pts=75665900
[Parsed_concat_7 @ 0x557cc0232880] EOF on in1:a0, 1 streams left in segment.
[Parsed_concat_7 @ 0x557cc0232880] EOF on in1:v0, 0 streams left in segment.
[Parsed_concat_7 @ 0x557cc0232880] Segment finished at pts=77684585
No more output streams to write to, finishing.
frame= 2320 fps= 92 q=-1.0 Lsize=   49475kB time=00:01:17.69 bitrate=5216.6kbits/s speed=3.07x    
[AVIOContext @ 0x557cbf321440] Statistics: 0 seeks, 51 writeouts
video:48186kB audio:1219kB subtitle:0kB other streams:0kB global headers:0kB muxing overhead: 0.141721%
Input file #0 (/var/www/html/project/media/video/original/VID_20240815_111423_430.mp4):
  Input stream #0:0 (audio): 3258 packets read (1187844 bytes); 3258 frames decoded (3336192 samples); 
  Input stream #0:1 (video): 2270 packets read (8509760 bytes); 2270 frames decoded; 
  Total: 5528 packets (9697604 bytes) demuxed
Input file #1 (/var/www/html/project/static/images/templates/logo.png):
  Input stream #1:0 (video): 1 packets read (111578 bytes); 1 frames decoded; 
  Total: 1 packets (111578 bytes) demuxed
Input file #2 (/var/www/html/project/static/images/templates/Codino.mp4):
  Input stream #2:0 (audio): 89 packets read (26579 bytes); 87 frames decoded (89024 samples); 
  Input stream #2:1 (video): 50 packets read (203365 bytes); 50 frames decoded; 
  Total: 139 packets (229944 bytes) demuxed
Output file #0 (/var/www/html/project/media/video/watermarks/VID_20240815_111423_430.mp4):
  Output stream #0:0 (video): 2320 frames encoded; 2320 packets muxed (49342465 bytes); 
  Output stream #0:1 (audio): 3346 frames encoded (3425883 samples); 3347 packets muxed (1247927 bytes); 
  Total: 5667 packets (50590392 bytes) muxed
[AVIOContext @ 0x557cbf3f9700] Statistics: 2 seeks, 196 writeouts
[libx264 @ 0x557cbf3fb480] frame I:24    Avg QP:15.83  size: 77495
[libx264 @ 0x557cbf3fb480] frame P:1992  Avg QP:19.71  size: 22344
[libx264 @ 0x557cbf3fb480] frame B:304   Avg QP:21.43  size:  9778
[libx264 @ 0x557cbf3fb480] consecutive B-frames: 79.3%  7.2%  7.6%  5.9%
[libx264 @ 0x557cbf3fb480] mb I  I16..4: 14.6% 27.0% 58.4%
[libx264 @ 0x557cbf3fb480] mb P  I16..4:  4.1% 10.3%  2.9%  P16..4: 39.0% 15.3% 10.0%  0.0%  0.0%    skip:18.4%
[libx264 @ 0x557cbf3fb480] mb B  I16..4:  2.0%  4.5%  0.9%  B16..8: 28.2%  8.2%  1.2%  direct:11.6%  skip:43.4%  L0:51.3% L1:32.8% BI:16.0%
[libx264 @ 0x557cbf3fb480] 8x8 transform intra:57.5% inter:44.3%
[libx264 @ 0x557cbf3fb480] coded y,uvDC,uvAC intra: 65.8% 63.9% 24.4% inter: 27.0% 25.2% 2.1%
[libx264 @ 0x557cbf3fb480] i16 v,h,dc,p: 26% 45% 24%  6%
[libx264 @ 0x557cbf3fb480] i8 v,h,dc,ddl,ddr,vr,hd,vl,hu: 22% 31% 18%  3%  5%  5%  6%  4%  6%
[libx264 @ 0x557cbf3fb480] i4 v,h,dc,ddl,ddr,vr,hd,vl,hu: 24% 26% 12%  5%  7%  7%  8%  6%  6%
[libx264 @ 0x557cbf3fb480] i8c dc,h,v,p: 42% 30% 21%  7%
[libx264 @ 0x557cbf3fb480] Weighted P-Frames: Y:1.4% UV:0.1%
[libx264 @ 0x557cbf3fb480] kb/s:5082.41
[aac @ 0x557cbf38f940] Qavg: 873.236
[AVIOContext @ 0x557cbf32a3c0] Statistics: 9795195 bytes read, 2 seeks
[AVIOContext @ 0x557cbf334fc0] Statistics: 111578 bytes read, 0 seeks
[AVIOContext @ 0x557cbf387400] Statistics: 1530915 bytes read, 42 seeks
